<?xml version="1.0" encoding="UTF-8"?>
<svg width="25px" height="24px" viewBox="0 0 25 24" version="1.1" xmlns="http://www.w3.org/2000/svg" xmlns:xlink="http://www.w3.org/1999/xlink">
    <!-- Generator: Sketch 64 (93537) - https://sketch.com -->
    <title>Urutkan@1,5x</title>
    <desc>Created with Sketch.</desc>
    <defs>
        <filter x="-2.2%" y="-16.0%" width="104.4%" height="132.0%" filterUnits="objectBoundingBox" id="filter-1">
            <feOffset dx="0" dy="0" in="SourceAlpha" result="shadowOffsetOuter1"></feOffset>
            <feGaussianBlur stdDeviation="2" in="shadowOffsetOuter1" result="shadowBlurOuter1"></feGaussianBlur>
            <feColorMatrix values="0 0 0 0 0   0 0 0 0 0   0 0 0 0 0  0 0 0 0.15 0" type="matrix" in="shadowBlurOuter1" result="shadowMatrixOuter1"></feColorMatrix>
            <feMerge>
                <feMergeNode in="shadowMatrixOuter1"></feMergeNode>
                <feMergeNode in="SourceGraphic"></feMergeNode>
            </feMerge>
        </filter>
    </defs>
    <g id="Donation-Page" stroke="none" stroke-width="1" fill="none" fill-rule="evenodd">
        <g id="New---Donasi-Page---Balita-&amp;-Anak-Sakit-(1)" transform="translate(-140.000000, -83.000000)" fill="#00AEEF" fill-rule="nonzero">
            <g id="Tab-Bar-/-Filter-/-Off" filter="url(#filter-1)" transform="translate(0.000000, 70.000000)">
                <g id="Group-3" transform="translate(120.000000, 0.000000)">
                    <g id="Group-11" transform="translate(24.000000, 17.000000)">
                        <g id="Icon-/-Tab-Bar-/-Sort">
                            <path d="M3.27999099,15.5799974 C3.39249055,15.5799974 3.4824905,15.5349977 3.54999034,15.4449977 L3.54999034,15.4449977 L6.38498358,12.6100045 C6.47498354,12.5200045 6.51998326,12.4243799 6.51998326,12.3231302 C6.51998326,12.2218804 6.47498354,12.1262558 6.38498358,12.0362559 L6.38498358,12.0362559 L6.14873415,11.8000064 C6.08123431,11.7100065 5.99123435,11.6650068 5.87873479,11.6650068 C5.76623523,11.6650068 5.66498547,11.7100065 5.57498552,11.8000064 L5.57498552,11.8000064 L3.85373962,13.5550023 L3.85373962,0.865032508 C3.85373962,0.752532948 3.81436454,0.656907833 3.7356149,0.578158192 C3.65686526,0.499408552 3.56124015,0.460033474 3.44874059,0.460033474 L3.44874059,0.460033474 L3.11124139,0.460033474 C2.99874183,0.460033474 2.90311671,0.499408552 2.82436707,0.578158192 C2.74561743,0.656907833 2.70624236,0.752532948 2.70624236,0.865032508 L2.70624236,0.865032508 L2.70624236,13.5550023 L0.984996459,11.8000064 C0.894996502,11.7100065 0.793746744,11.6650068 0.681247184,11.6650068 C0.568747624,11.6650068 0.478747666,11.7100065 0.411247827,11.8000064 L0.411247827,11.8000064 L0.174998391,12.0362559 C0.0849984336,12.1262558 0.0399987125,12.2218804 0.0399987125,12.3231302 C0.0399987125,12.4243799 0.0849984336,12.5200045 0.174998391,12.6100045 L0.174998391,12.6100045 L3.00999163,15.4449977 C3.07749147,15.5349977 3.16749143,15.5799974 3.27999099,15.5799974 Z M16.3749598,3.70002575 C16.4874593,3.70002575 16.5830844,3.66065067 16.6618341,3.58190103 C16.7405837,3.50315139 16.7799588,3.40752627 16.7799588,3.29502671 L16.7799588,3.29502671 L16.7799588,3.02502736 C16.7799588,2.9125278 16.7405837,2.81690268 16.6618341,2.73815304 C16.5830844,2.6594034 16.4874593,2.62002832 16.3749598,2.62002832 L16.3749598,2.62002832 L8.54497844,2.62002832 C8.43247887,2.62002832 8.33685376,2.6594034 8.25810412,2.73815304 C8.17935448,2.81690268 8.1399794,2.9125278 8.1399794,3.02502736 L8.1399794,3.02502736 L8.1399794,3.29502671 C8.1399794,3.40752627 8.17935448,3.50315139 8.25810412,3.58190103 C8.33685376,3.66065067 8.43247887,3.70002575 8.54497844,3.70002575 L8.54497844,3.70002575 L16.3749598,3.70002575 Z M14.2149649,6.94001802 C14.3274645,6.94001802 14.4230896,6.90064295 14.5018392,6.82189331 C14.5805889,6.74314367 14.619964,6.64751855 14.619964,6.53501899 L14.619964,6.53501899 L14.619964,6.26501963 C14.619964,6.15252007 14.5805889,6.05689496 14.5018392,5.97814532 C14.4230896,5.89939568 14.3274645,5.8600206 14.2149649,5.8600206 L14.2149649,5.8600206 L8.54497844,5.8600206 C8.43247887,5.8600206 8.33685376,5.89939568 8.25810412,5.97814532 C8.17935448,6.05689496 8.1399794,6.15252007 8.1399794,6.26501963 L8.1399794,6.26501963 L8.1399794,6.53501899 C8.1399794,6.64751855 8.17935448,6.74314367 8.25810412,6.82189331 C8.33685376,6.90064295 8.43247887,6.94001802 8.54497844,6.94001802 L8.54497844,6.94001802 L14.2149649,6.94001802 Z M12.0549701,10.1800103 C12.1674696,10.1800103 12.2630947,10.1406352 12.3418444,10.0618856 C12.420594,9.98313594 12.4599691,9.88751083 12.4599691,9.77501127 L12.4599691,9.77501127 L12.4599691,9.50501191 C12.4599691,9.39251235 12.420594,9.29688723 12.3418444,9.21813759 C12.2630947,9.13938795 12.1674696,9.10001287 12.0549701,9.10001287 L12.0549701,9.10001287 L8.54497844,9.10001287 C8.43247887,9.10001287 8.33685376,9.13938795 8.25810412,9.21813759 C8.17935448,9.29688723 8.1399794,9.39251235 8.1399794,9.50501191 L8.1399794,9.50501191 L8.1399794,9.77501127 C8.1399794,9.88751083 8.17935448,9.98313594 8.25810412,10.0618856 C8.33685376,10.1406352 8.43247887,10.1800103 8.54497844,10.1800103 L8.54497844,10.1800103 L12.0549701,10.1800103 Z M9.89497522,13.4200026 C10.0074748,13.4200026 10.1030999,13.3806275 10.1818495,13.3018779 C10.2605992,13.2231282 10.2999743,13.1275031 10.2999743,13.0150035 L10.2999743,13.0150035 L10.2999743,12.7450042 C10.2999743,12.6325046 10.2605992,12.5368795 10.1818495,12.4581299 C10.1030999,12.3793802 10.0074748,12.3400051 9.89497522,12.3400051 L9.89497522,12.3400051 L8.54497844,12.3400051 C8.43247887,12.3400051 8.33685376,12.3793802 8.25810412,12.4581299 C8.17935448,12.5368795 8.1399794,12.6325046 8.1399794,12.7450042 L8.1399794,12.7450042 L8.1399794,13.0150035 C8.1399794,13.1275031 8.17935448,13.2231282 8.25810412,13.3018779 C8.33685376,13.3806275 8.43247887,13.4200026 8.54497844,13.4200026 L8.54497844,13.4200026 L9.89497522,13.4200026 Z" id="Urutkan"></path>
                        </g>
                    </g>
                </g>
            </g>
        </g>
    </g>
</svg>