<?xml version="1.0" encoding="UTF-8"?>
<svg width="26px" height="26px" viewBox="0 0 26 26" version="1.1" xmlns="http://www.w3.org/2000/svg" xmlns:xlink="http://www.w3.org/1999/xlink">
    <!-- Generator: Sketch 64 (93537) - https://sketch.com -->
    <title>Kategori@1,5x</title>
    <desc>Created with Sketch.</desc>
    <defs>
        <filter x="-2.2%" y="-16.0%" width="104.4%" height="132.0%" filterUnits="objectBoundingBox" id="filter-1">
            <feOffset dx="0" dy="0" in="SourceAlpha" result="shadowOffsetOuter1"></feOffset>
            <feGaussianBlur stdDeviation="2" in="shadowOffsetOuter1" result="shadowBlurOuter1"></feGaussianBlur>
            <feColorMatrix values="0 0 0 0 0   0 0 0 0 0   0 0 0 0 0  0 0 0 0.15 0" type="matrix" in="shadowBlurOuter1" result="shadowMatrixOuter1"></feColorMatrix>
            <feMerge>
                <feMergeNode in="shadowMatrixOuter1"></feMergeNode>
                <feMergeNode in="SourceGraphic"></feMergeNode>
            </feMerge>
        </filter>
        <path d="M2.66,17.58 C2.80625,17.58 2.9328125,17.5265625 3.0396875,17.4196875 C3.1465625,17.3128125 3.2,17.18625 3.2,17.04 L3.2,11.0325 C3.6725,10.90875 4.060625,10.655625 4.364375,10.273125 C4.668125,9.890625 4.82,9.44625 4.82,8.94 C4.82,8.43375 4.668125,7.989375 4.364375,7.606875 C4.060625,7.224375 3.6725,6.97125 3.2,6.8475 L3.2,0.84 C3.2,0.69375 3.1465625,0.5671875 3.0396875,0.4603125 C2.9328125,0.3534375 2.80625,0.3 2.66,0.3 C2.51375,0.3 2.3871875,0.3534375 2.2803125,0.4603125 C2.1734375,0.5671875 2.12,0.69375 2.12,0.84 L2.12,6.8475 C1.65875,6.97125 1.2734375,7.224375 0.9640625,7.606875 C0.6546875,7.989375 0.5,8.43375 0.5,8.94 C0.5,9.44625 0.6546875,9.890625 0.9640625,10.273125 C1.2734375,10.655625 1.65875,10.90875 2.12,11.0325 L2.12,17.04 C2.12,17.18625 2.1734375,17.3128125 2.2803125,17.4196875 C2.3871875,17.5265625 2.51375,17.58 2.66,17.58 Z M9.14,17.58 C9.28625,17.58 9.4128125,17.5265625 9.5196875,17.4196875 C9.6265625,17.3128125 9.68,17.18625 9.68,17.04 L9.68,14.2725 C10.1525,14.14875 10.540625,13.895625 10.844375,13.513125 C11.148125,13.130625 11.3,12.68625 11.3,12.18 C11.3,11.67375 11.148125,11.229375 10.844375,10.846875 C10.540625,10.464375 10.1525,10.21125 9.68,10.0875 L9.68,0.84 C9.68,0.69375 9.6265625,0.5671875 9.5196875,0.4603125 C9.4128125,0.3534375 9.28625,0.3 9.14,0.3 C8.99375,0.3 8.8671875,0.3534375 8.7603125,0.4603125 C8.6534375,0.5671875 8.6,0.69375 8.6,0.84 L8.6,10.0875 C8.13875,10.21125 7.7534375,10.464375 7.4440625,10.846875 C7.1346875,11.229375 6.98,11.67375 6.98,12.18 C6.98,12.68625 7.1346875,13.130625 7.4440625,13.513125 C7.7534375,13.895625 8.13875,14.14875 8.6,14.2725 L8.6,17.04 C8.6,17.18625 8.6534375,17.3128125 8.7603125,17.4196875 C8.8671875,17.5265625 8.99375,17.58 9.14,17.58 Z M15.62,17.58 C15.76625,17.58 15.8928125,17.5265625 15.9996875,17.4196875 C16.1065625,17.3128125 16.16,17.18625 16.16,17.04 L16.16,7.7925 C16.6325,7.66875 17.020625,7.415625 17.324375,7.033125 C17.628125,6.650625 17.78,6.20625 17.78,5.7 C17.78,5.19375 17.628125,4.749375 17.324375,4.366875 C17.020625,3.984375 16.6325,3.73125 16.16,3.6075 L16.16,0.84 C16.16,0.69375 16.1065625,0.5671875 15.9996875,0.4603125 C15.8928125,0.3534375 15.76625,0.3 15.62,0.3 C15.47375,0.3 15.3471875,0.3534375 15.2403125,0.4603125 C15.1334375,0.5671875 15.08,0.69375 15.08,0.84 L15.08,3.6075 C14.61875,3.73125 14.2334375,3.984375 13.9240625,4.366875 C13.6146875,4.749375 13.46,5.19375 13.46,5.7 C13.46,6.20625 13.6146875,6.650625 13.9240625,7.033125 C14.2334375,7.415625 14.61875,7.66875 15.08,7.7925 L15.08,17.04 C15.08,17.18625 15.1334375,17.3128125 15.2403125,17.4196875 C15.3471875,17.5265625 15.47375,17.58 15.62,17.58 Z M15.62,6.78 C15.31625,6.78 15.0603125,6.673125 14.8521875,6.459375 C14.6440625,6.245625 14.54,5.9925 14.54,5.7 C14.54,5.4075 14.6440625,5.154375 14.8521875,4.940625 C15.0305804,4.75741071 15.2441008,4.65271684 15.4927487,4.62654337 L15.62,4.62 L15.62,4.62 C15.92375,4.62 16.1796875,4.726875 16.3878125,4.940625 C16.5959375,5.154375 16.7,5.4075 16.7,5.7 C16.7,5.9925 16.5959375,6.245625 16.3878125,6.459375 C16.2094196,6.64258929 15.9958992,6.74728316 15.7472513,6.77345663 L15.62,6.78 L15.62,6.78 Z M2.66,10.02 C2.35625,10.02 2.1003125,9.913125 1.8921875,9.699375 C1.6840625,9.485625 1.58,9.2325 1.58,8.94 C1.58,8.6475 1.6840625,8.394375 1.8921875,8.180625 C2.07058036,7.99741071 2.28410077,7.89271684 2.53274872,7.86654337 L2.66,7.86 L2.66,7.86 C2.96375,7.86 3.2196875,7.966875 3.4278125,8.180625 C3.6359375,8.394375 3.74,8.6475 3.74,8.94 C3.74,9.2325 3.6359375,9.485625 3.4278125,9.699375 C3.24941964,9.88258929 3.03589923,9.98728316 2.78725128,10.0134566 L2.66,10.02 L2.66,10.02 Z M9.14,13.26 C8.83625,13.26 8.5803125,13.153125 8.3721875,12.939375 C8.1640625,12.725625 8.06,12.4725 8.06,12.18 C8.06,11.8875 8.1640625,11.634375 8.3721875,11.420625 C8.55058036,11.2374107 8.76410077,11.1327168 9.01274872,11.1065434 L9.14,11.1 L9.14,11.1 C9.44375,11.1 9.6996875,11.206875 9.9078125,11.420625 C10.1159375,11.634375 10.22,11.8875 10.22,12.18 C10.22,12.4725 10.1159375,12.725625 9.9078125,12.939375 C9.72941964,13.1225893 9.51589923,13.2272832 9.26725128,13.2534566 L9.14,13.26 L9.14,13.26 Z" id="path-2"></path>
    </defs>
    <g id="Donation-Page" stroke="none" stroke-width="1" fill="none" fill-rule="evenodd">
        <g id="New---Donasi-Page---Balita-&amp;-Anak-Sakit-(1)" transform="translate(-19.000000, -83.000000)" fill-rule="nonzero">
            <g id="Tab-Bar-/-Filter-/-Off" filter="url(#filter-1)" transform="translate(0.000000, 70.000000)">
                <g id="Group-10">
                    <g id="Group-9" transform="translate(23.000000, 17.000000)">
                        <g id="Icon-/-Tab-Bar-/-Filter">
                            <g id="Kategori" transform="translate(9.140000, 8.940000) rotate(-270.000000) translate(-9.140000, -8.940000) ">
                                <use fill="#4A4A4A" xlink:href="#path-2"></use>
                                <use fill="#00AEEF" xlink:href="#path-2"></use>
                            </g>
                        </g>
                    </g>
                </g>
            </g>
        </g>
    </g>
</svg>