<svg width="24" height="24" viewBox="0 0 24 24" fill="none" xmlns="http://www.w3.org/2000/svg">
<path d="M17 2C17.7956 2 18.5587 2.31607 19.1213 2.87868C19.6839 3.44129 20 4.20435 20 5V21C20 21.181 19.9509 21.3587 19.8579 21.514C19.7648 21.6693 19.6314 21.7965 19.4718 21.8819C19.3121 21.9673 19.1323 22.0078 18.9515 21.999C18.7707 21.9902 18.5956 21.9325 18.445 21.832L16.127 20.287L14.707 21.707C14.5348 21.8792 14.3057 21.9826 14.0627 21.9979C13.8197 22.0132 13.5794 21.9393 13.387 21.79L13.293 21.707L12 20.415L10.707 21.707C10.5348 21.8792 10.3057 21.9826 10.0627 21.9979C9.81966 22.0132 9.5794 21.9393 9.387 21.79L9.293 21.707L7.872 20.287L5.555 21.832L5.536 21.844L5.482 21.874L5.454 21.891L5.4 21.914L5.35 21.937L5.301 21.952L5.241 21.971L5.189 21.98L5.132 21.991L5.048 21.997L5.022 22H5L4.951 21.997H4.912L4.899 21.994H4.883L4.842 21.986L4.804 21.981L4.789 21.976L4.771 21.974L4.737 21.963L4.697 21.953L4.678 21.946L4.663 21.942L4.634 21.929L4.594 21.914L4.573 21.903L4.56 21.898L4.532 21.882L4.496 21.864L4.482 21.854L4.464 21.844L4.426 21.817L4.404 21.803L4.394 21.794L4.374 21.78L4.329 21.739L4.317 21.731L4.293 21.707L4.258 21.668L4.238 21.648L4.231 21.637L4.22 21.625L4.188 21.58L4.168 21.555L4.156 21.536L4.126 21.482L4.109 21.454L4.086 21.4L4.063 21.35C4.04964 21.3147 4.03828 21.2786 4.029 21.242L4.019 21.185L4.009 21.132L4 21V5C4 4.20435 4.31607 3.44129 4.87868 2.87868C5.44129 2.31607 6.20435 2 7 2H17ZM15 14H13C12.7348 14 12.4804 14.1054 12.2929 14.2929C12.1054 14.4804 12 14.7348 12 15C12 15.2652 12.1054 15.5196 12.2929 15.7071C12.4804 15.8946 12.7348 16 13 16H15C15.2652 16 15.5196 15.8946 15.7071 15.7071C15.8946 15.5196 16 15.2652 16 15C16 14.7348 15.8946 14.4804 15.7071 14.2929C15.5196 14.1054 15.2652 14 15 14ZM15 10H9C8.73478 10 8.48043 10.1054 8.29289 10.2929C8.10536 10.4804 8 10.7348 8 11C8 11.2652 8.10536 11.5196 8.29289 11.7071C8.48043 11.8946 8.73478 12 9 12H15C15.2652 12 15.5196 11.8946 15.7071 11.7071C15.8946 11.5196 16 11.2652 16 11C16 10.7348 15.8946 10.4804 15.7071 10.2929C15.5196 10.1054 15.2652 10 15 10ZM15 6H9C8.73478 6 8.48043 6.10536 8.29289 6.29289C8.10536 6.48043 8 6.73478 8 7C8 7.26522 8.10536 7.51957 8.29289 7.70711C8.48043 7.89464 8.73478 8 9 8H15C15.2652 8 15.5196 7.89464 15.7071 7.70711C15.8946 7.51957 16 7.26522 16 7C16 6.73478 15.8946 6.48043 15.7071 6.29289C15.5196 6.10536 15.2652 6 15 6Z" fill="url(#paint0_linear_684_323)"/>
<defs>
<linearGradient id="paint0_linear_684_323" x1="12" y1="2" x2="12" y2="22.0002" gradientUnits="userSpaceOnUse">
<stop stop-color="#10A8E5"/>
<stop offset="1" stop-color="#1D7EDD"/>
</linearGradient>
</defs>
</svg>
